<?xml version="1.0" encoding="utf-8"?>
<!-- Generator: Adobe Illustrator 27.3.1, SVG Export Plug-In . SVG Version: 6.00 Build 0)  -->
<svg version="1.1" id="Layer_1" xmlns="http://www.w3.org/2000/svg" xmlns:xlink="http://www.w3.org/1999/xlink" x="0px" y="0px"
	 viewBox="0 0 176.6 56.8" style="enable-background:new 0 0 176.6 56.8;" xml:space="preserve">
<style type="text/css">
	.st0{fill:#FFFFFF;}
</style>
<g>
	<path class="st0" d="M113.3,39.1c0,0.5,0.1,1,0.3,1.5c0.2,0.5,0.5,0.8,0.8,1.2c0.3,0.3,0.8,0.6,1.2,0.8c0.5,0.2,1,0.3,1.6,0.3
		c0.2,0,0.4,0,0.7,0c0.3,0,0.6-0.1,1-0.2V41c-0.4,0.1-0.7,0.2-0.9,0.2c-0.2,0-0.4,0-0.7,0c-0.5,0-0.9-0.2-1.2-0.4
		c-0.3-0.3-0.6-0.6-0.7-1.1h5.6c0-0.1,0-0.2,0-0.2c0-0.1,0-0.2,0-0.3v0c0-0.5-0.1-1-0.2-1.4c-0.1-0.5-0.4-0.9-0.7-1.2
		c-0.3-0.4-0.7-0.6-1.2-0.9s-1.1-0.3-1.7-0.3c-0.6,0-1.1,0.1-1.6,0.3c-0.5,0.2-0.9,0.5-1.2,0.8c-0.3,0.3-0.6,0.7-0.8,1.2
		C113.4,38.1,113.3,38.6,113.3,39.1z M116.1,37.5c0.3-0.3,0.7-0.4,1.2-0.4c0.5,0,0.9,0.1,1.2,0.4c0.3,0.3,0.5,0.6,0.5,1.1h-3.5
		C115.6,38.1,115.8,37.7,116.1,37.5z"/>
	<polygon class="st0" points="108.9,38.9 112.9,38.9 112.9,37 108.9,37 108.9,35.3 113.9,35.3 113.9,33.4 106.6,33.4 106.6,42.7 
		108.9,42.7 	"/>
	<rect x="165.9" y="35.6" class="st0" width="2.3" height="7.1"/>
	<rect x="165.9" y="32.9" class="st0" width="2.3" height="1.6"/>
	<path class="st0" d="M122.1,41.7c0.3,0.3,0.7,0.5,1.1,0.7c0.4,0.2,0.8,0.3,1.2,0.4c0.4,0.1,0.8,0.1,1.1,0.1c0.3,0,0.6,0,0.9-0.1
		v-1.5c-0.2,0.1-0.5,0.1-0.9,0c-0.4,0-0.7-0.1-1-0.3c-0.3-0.2-0.6-0.4-0.8-0.7c-0.2-0.3-0.3-0.7-0.3-1.1c0-0.5,0.1-0.8,0.3-1.1
		c0.2-0.3,0.5-0.5,0.8-0.7c0.3-0.2,0.7-0.3,1-0.3c0.3,0,0.6,0,0.9,0v-1.5c-0.2-0.1-0.5-0.1-0.9-0.1c-0.3,0-0.7,0-1.1,0.1
		c-0.4,0.1-0.8,0.2-1.2,0.4c-0.4,0.2-0.8,0.4-1.1,0.7c-0.3,0.3-0.6,0.6-0.8,1.1c-0.2,0.4-0.3,0.9-0.3,1.5c0,0.6,0.1,1.1,0.3,1.5
		C121.6,41,121.8,41.4,122.1,41.7z"/>
	<path class="st0" d="M127.6,41.7c0.4,0.3,0.8,0.6,1.2,0.8c0.5,0.2,1,0.3,1.5,0.3c0.5,0,1.1-0.1,1.5-0.3c0.5-0.2,0.9-0.5,1.2-0.8
		c0.4-0.3,0.6-0.7,0.8-1.2c0.2-0.5,0.3-0.9,0.3-1.4c0-0.5-0.1-1-0.3-1.5c-0.2-0.5-0.5-0.8-0.8-1.2c-0.4-0.3-0.8-0.6-1.2-0.8
		c-0.5-0.2-1-0.3-1.5-0.3c-0.5,0-1.1,0.1-1.5,0.3c-0.5,0.2-0.9,0.5-1.2,0.8c-0.4,0.3-0.6,0.7-0.8,1.2c-0.2,0.5-0.3,0.9-0.3,1.5
		c0,0.5,0.1,1,0.3,1.4C127,41,127.3,41.4,127.6,41.7z M128.8,38.3c0-0.3,0.1-0.5,0.3-0.7c0.1-0.2,0.3-0.3,0.5-0.4
		c0.2-0.1,0.5-0.2,0.8-0.2c0.3,0,0.6,0.1,0.8,0.2c0.2,0.1,0.4,0.3,0.5,0.4c0.1,0.2,0.2,0.4,0.3,0.7c0,0.3,0.1,0.5,0.1,0.8
		c0,0.3,0,0.6-0.1,0.8c0,0.3-0.1,0.5-0.3,0.7c-0.1,0.2-0.3,0.3-0.5,0.4c-0.2,0.1-0.5,0.2-0.8,0.2c-0.3,0-0.6-0.1-0.8-0.2
		c-0.2-0.1-0.4-0.3-0.5-0.4c-0.1-0.2-0.2-0.4-0.3-0.7c0-0.3-0.1-0.5-0.1-0.8C128.7,38.8,128.7,38.5,128.8,38.3z"/>
	<path class="st0" d="M146.4,36.4c-0.3-0.3-0.7-0.6-1.2-0.7c-0.5-0.2-1-0.3-1.6-0.3c-0.6,0-1.1,0.1-1.5,0.2
		c-0.4,0.1-0.8,0.3-1.1,0.6c-0.3-0.2-0.7-0.4-1.1-0.6c-0.4-0.1-0.9-0.2-1.5-0.2c-0.6,0-1.2,0.1-1.6,0.3c-0.5,0.2-0.8,0.4-1.2,0.7
		c-0.3,0.3-0.5,0.7-0.7,1.1c-0.2,0.4-0.2,0.9-0.2,1.4v3.8h2.3v-4c0-0.2,0-0.4,0.1-0.6c0-0.2,0.1-0.4,0.2-0.5
		c0.1-0.2,0.2-0.3,0.4-0.4c0.2-0.1,0.4-0.1,0.7-0.1c0.3,0,0.5,0.1,0.7,0.1c0.2,0.1,0.3,0.2,0.4,0.4c0.1,0.2,0.2,0.3,0.2,0.5
		c0.1,0.2,0.1,0.4,0.1,0.6v4h2.3h0v-4c0-0.2,0-0.4,0.1-0.6c0-0.2,0.1-0.4,0.2-0.5c0.1-0.2,0.2-0.3,0.4-0.4c0.2-0.1,0.4-0.1,0.7-0.1
		c0.3,0,0.5,0.1,0.7,0.1c0.2,0.1,0.3,0.2,0.4,0.4c0.1,0.2,0.2,0.3,0.2,0.5c0,0.2,0.1,0.4,0.1,0.6v4h2.3v-3.8c0-0.5-0.1-0.9-0.2-1.4
		C147,37.1,146.8,36.7,146.4,36.4z"/>
	<polygon class="st0" points="154.1,33.1 152.3,32.4 150.8,34.7 152.4,34.7 	"/>
	<path class="st0" d="M154.7,36.6c-0.3-0.4-0.7-0.6-1.2-0.9c-0.5-0.2-1.1-0.3-1.7-0.3c-0.6,0-1.1,0.1-1.6,0.3
		c-0.5,0.2-0.9,0.5-1.2,0.8c-0.3,0.3-0.6,0.7-0.8,1.2c-0.2,0.5-0.3,0.9-0.3,1.5c0,0.5,0.1,1,0.3,1.5c0.2,0.5,0.5,0.8,0.8,1.2
		c0.3,0.3,0.8,0.6,1.2,0.8c0.5,0.2,1,0.3,1.6,0.3c0.2,0,0.4,0,0.7,0c0.3,0,0.6-0.1,1-0.2V41c-0.4,0.1-0.7,0.2-0.9,0.2
		c-0.2,0-0.4,0-0.7,0c-0.5,0-0.9-0.2-1.2-0.4c-0.3-0.3-0.6-0.6-0.7-1.1h5.6c0-0.1,0-0.2,0-0.2c0-0.1,0-0.2,0-0.3v0
		c0-0.5-0.1-1-0.2-1.4C155.3,37.4,155,36.9,154.7,36.6z M150,38.6c0.1-0.5,0.3-0.8,0.6-1.1c0.3-0.3,0.7-0.4,1.2-0.4
		c0.5,0,0.9,0.1,1.2,0.4c0.3,0.3,0.5,0.6,0.5,1.1H150z"/>
	<path class="st0" d="M160.4,35.4c-0.1,0-0.2,0-0.2,0c-0.1,0-0.1,0-0.2,0h-0.2c-0.6,0-1.1,0.1-1.6,0.2c-0.5,0.2-0.9,0.4-1.2,0.6
		c-0.3,0.3-0.6,0.6-0.8,1c-0.2,0.4-0.3,0.8-0.3,1.2v4.3h2.3v-4.1c0-0.2,0-0.4,0.1-0.6c0-0.1,0.1-0.3,0.2-0.4
		c0.1-0.1,0.2-0.2,0.3-0.2c0.1-0.1,0.2-0.1,0.3-0.2c0.2-0.1,0.4-0.1,0.6-0.2c0.2,0,0.5-0.1,0.7-0.1V35.4z"/>
	<path class="st0" d="M163.4,35.4c-0.4,0.1-0.8,0.2-1.2,0.4c-0.4,0.2-0.8,0.4-1.1,0.7c-0.3,0.3-0.6,0.6-0.8,1.1s-0.3,0.9-0.3,1.5
		c0,0.6,0.1,1.1,0.3,1.5c0.2,0.4,0.5,0.8,0.8,1.1c0.3,0.3,0.7,0.5,1.1,0.7c0.4,0.2,0.8,0.3,1.2,0.4c0.4,0.1,0.8,0.1,1.1,0.1
		c0.3,0,0.6,0,0.9-0.1v-1.5c-0.2,0.1-0.5,0.1-0.9,0c-0.4,0-0.7-0.1-1-0.3c-0.3-0.2-0.6-0.4-0.8-0.7c-0.2-0.3-0.3-0.7-0.3-1.1
		c0-0.5,0.1-0.8,0.3-1.1c0.2-0.3,0.5-0.5,0.8-0.7c0.3-0.2,0.7-0.3,1-0.3c0.3,0,0.6,0,0.9,0v-1.5c-0.2-0.1-0.5-0.1-0.9-0.1
		C164.1,35.3,163.8,35.4,163.4,35.4z"/>
	<path class="st0" d="M175.5,36.5c-0.4-0.3-0.8-0.6-1.2-0.8c-0.5-0.2-1-0.3-1.5-0.3c-0.5,0-1.1,0.1-1.5,0.3
		c-0.5,0.2-0.9,0.5-1.2,0.8c-0.4,0.3-0.6,0.7-0.8,1.2c-0.2,0.5-0.3,0.9-0.3,1.5c0,0.5,0.1,1,0.3,1.4c0.2,0.4,0.5,0.8,0.8,1.2
		c0.4,0.3,0.8,0.6,1.2,0.8c0.5,0.2,1,0.3,1.5,0.3c0.5,0,1.1-0.1,1.5-0.3c0.5-0.2,0.9-0.5,1.2-0.8c0.4-0.3,0.6-0.7,0.8-1.2
		c0.2-0.5,0.3-0.9,0.3-1.4c0-0.5-0.1-1-0.3-1.5C176.1,37.2,175.8,36.8,175.5,36.5z M174.3,39.9c0,0.3-0.1,0.5-0.3,0.7
		c-0.1,0.2-0.3,0.3-0.5,0.4c-0.2,0.1-0.5,0.2-0.8,0.2c-0.3,0-0.6-0.1-0.8-0.2c-0.2-0.1-0.4-0.3-0.5-0.4c-0.1-0.2-0.2-0.4-0.3-0.7
		c0-0.3-0.1-0.5-0.1-0.8c0-0.3,0-0.6,0.1-0.8c0-0.3,0.1-0.5,0.3-0.7c0.1-0.2,0.3-0.3,0.5-0.4c0.2-0.1,0.5-0.2,0.8-0.2
		c0.3,0,0.6,0.1,0.8,0.2c0.2,0.1,0.4,0.3,0.5,0.4c0.1,0.2,0.2,0.4,0.3,0.7c0,0.3,0.1,0.5,0.1,0.8C174.4,39.4,174.3,39.7,174.3,39.9z
		"/>
	<path class="st0" d="M129.3,52.6c0,0.2,0,0.3,0,0.5c-0.4-0.7-1.3-1.1-2.6-1.3c-1.6-0.3-1.9-0.5-1.8-0.8c0-0.3,0.6-0.7,1.4-0.7
		c0.5,0,1.2,0.1,1.8,0.4V49c-0.6-0.2-1.3-0.3-2-0.3c-2.1,0-3.4,1-3.5,2.3c0,0,0,0,0,0.1c-0.5-1.3-1.6-2.4-3.7-2.4
		c-2.4,0-4,1.8-4,3.9c0,0.1,0,0.2,0,0.3c-0.4-1-1.5-1.5-3.2-1.9c-1.8-0.4-2.3-0.6-2.3-1.2v0c0-0.4,0.5-0.8,1.4-0.8
		c0.9,0,1.6,0.3,2.5,0.9v-2.1c-0.8-0.3-1.5-0.5-2.5-0.5c-2.2,0-3.7,1.1-3.7,2.7v0c0,1.8,1.4,2.3,3.5,2.8c1.8,0.4,2.1,0.6,2.1,1.2v0
		c0,0.5-0.6,0.9-1.5,0.9c-1.2,0-2.3-0.5-3.2-1.1l-1.4,1.4c1.3,1,3,1.5,4.6,1.5c2.3,0,3.9-1,3.9-2.8c0.5,1.6,1.9,2.6,3.8,2.6
		c0.4,0,0.9,0,1.8-0.2v-1.6c-0.8,0.2-1.2,0.3-1.6,0.2c-0.9-0.1-1.7-0.6-1.9-1.5h5.7c0-0.2,0-0.3,0-0.5v0c0-0.2,0-0.4,0-0.6
		c0.4,0.6,1.4,0.9,2.7,1.2c1.6,0.3,1.7,0.6,1.7,0.9c0,0.3-0.4,0.7-1.4,0.7c-1,0-2.1-0.3-3-0.8v1.9c0.9,0.4,2.1,0.7,3,0.7
		c2.2,0,3.6-1.3,3.6-2.6c0-0.1,0-0.1,0-0.1c0.4,0.9,1.1,1.6,2,2c0.9,0.4,1.8,0.5,2.5,0.5c0.4,0,0.8,0,1.2-0.1v-1.6
		c-0.2,0-0.4,0-0.6,0c-1.6,0-2.9-1-2.9-2.3c0-1.2,1.3-2.2,2.9-2.2c0.2,0,0.4,0,0.6,0v-1.6c-0.3,0-0.7-0.1-1.1-0.1
		C131.3,48.7,129.3,50.3,129.3,52.6z M117.1,52c0.2-0.9,0.8-1.6,1.9-1.6c1,0,1.7,0.6,1.8,1.6H117.1z"/>
	<path class="st0" d="M83.2,8.7C78.3,5.3,72.3,2.6,65.8,1c-1.6-0.4-3.2-0.7-4.9-1c-0.1,0-0.1,0-0.2,0c-2.4,1.8-4.6,3.7-6.6,5.8
		c2.2-0.3,4.4-0.5,6.7-0.6C68.8,4.9,76.4,6.2,83.2,8.7z"/>
	<path class="st0" d="M52.1,24.6c3.1-2.3,6.5-4.3,10.1-6.1c9-4.3,18.4-6.1,27.4-5.7C82,9.5,73.2,7.7,63.9,8c-4.6,0.2-9,0.8-13.2,2
		c-2.1,2.8-3.8,5.8-5.1,9C47.5,21,49.7,22.9,52.1,24.6z"/>
	<path class="st0" d="M42.6,33.5c2.4-2.9,5.3-5.5,8.4-8c-2.1-1.5-4.2-3.2-6-5C43.4,24.6,42.6,29,42.6,33.5z"/>
	<path class="st0" d="M44.9,16.9c1-2.1,2.2-4.2,3.4-6.2c-2.6,0.8-5.2,1.8-7.6,2.9c1.2,1.5,2.4,2.9,3.7,4.3
		C44.6,17.5,44.7,17.2,44.9,16.9z"/>
	<path class="st0" d="M82,43c-0.5-4.4-3.5-6.9-9.7-6.9c-0.3,0-1.2,0-1.5,0v4.7c1.2,0,2.9,0.2,3.6,0.6c1.1,0.6,1.6,1.5,1.7,2.8
		c-1.5-0.2-3.2-0.3-4.6-0.3c-5.8-0.1-8.7,1.7-9.4,4.7v-3.1c0-5.2-3.2-9.3-10-9.3c-6.2,0-9.4,3.4-9.9,8.1c-0.8-4.5-4-8.3-10.3-8.3
		c-6.4,0-10.8,4.5-10.8,10.1v0.1c0,0.2,0,0.3,0,0.4c-1.3-2.1-4.1-3.3-8.2-4.2c-4.9-1-5.6-1.5-5.6-3.1v-0.1c0-1.1,1.3-2.1,3.6-2.1
		c1.2,0,2.8,0.3,3.9,0.7v-4.9c-1-0.2-2.6-0.4-3.8-0.4c-5.8,0-9.9,2.8-9.9,7.1v0.1c0,4.7,3.7,6,9.4,7.2c4.7,1,5.2,1.7,5.2,3V50
		c0,1.4-1.5,2.2-4.1,2.2c-3.2,0-5.4-1.1-7.9-2.9L0,53c3.4,2.5,7.2,3.8,11.5,3.8c6,0,10.2-2.5,10.4-7c1.6,3.8,5.6,6.2,10.7,6.2
		c0.2,0,0.8,0,1,0v-4.4c-0.2,0-0.7,0-0.9,0c-2.8,0-4.7-1.3-5.3-3.8h14.9v7.8h6.3V45.1c0.1-1.9,0.9-4.2,3.7-4.2
		c2.8,0,3.6,2.3,3.8,4.2v10.6h6.2v-4.3c0.7,2.9,3.8,4.5,7.3,4.5c3,0,5.1-1,6.6-2.5v2.2h6v-8.1c1.4,5.2,7.1,9,14.2,9
		c0.2,0,0.5,0,0.7,0v-4.6c-0.1,0-0.2,0-0.3,0c-4.6,0-7.9-2.9-7.9-7V45c0-3.9,3.3-6.9,7.6-6.9c0.2,0,0.4,0,0.7,0v-4.6
		c-0.2,0-0.4,0-0.6,0C89,33.5,83.2,37.5,82,43z M27.2,44.4c0.5-2.5,2.2-4.1,4.7-4.1c2.6,0,4.2,1.7,4.6,4.1H27.2z M76.2,48.8
		c-0.5,2.8-3.5,3.3-4.1,3.3c-4.7,0.2-4.9-3-3.3-4c2.1-1.3,7.4-0.6,7.4-0.6C76.2,47.8,76.2,48.2,76.2,48.8z"/>
</g>
</svg>
